<svg width="24" height="24" viewBox="0 0 24 24" fill="none" xmlns="http://www.w3.org/2000/svg">
<path fill-rule="evenodd" clip-rule="evenodd" d="M4 5.4C4 3.59835 5.40423 2 7.3134 2H12.3425C13.3927 2 14.4567 2.39181 15.2604 3.19085L15.2701 3.2005L18.8865 6.89607C19.6883 7.69647 20.0956 8.869 19.9809 9.95713V18.6C19.9809 20.4017 18.5767 22 16.6675 22H7.3134C5.40423 22 4 20.4017 4 18.6V5.4ZM7.3134 4C6.60742 4 6 4.60165 6 5.4V18.6C6 19.3983 6.60742 20 7.3134 20H16.6675C17.3735 20 17.9809 19.3983 17.9809 18.6V9.9C17.9809 9.85827 17.9835 9.8166 17.9887 9.77527C18.0505 9.28453 17.8563 8.692 17.4712 8.30913L17.4615 8.29947L13.8459 4.60483C13.4431 4.20669 12.8996 4 12.3425 4H7.3134Z" fill="white"/>
<path fill-rule="evenodd" clip-rule="evenodd" d="M12.0001 12C12.5523 12 13.0001 12.4477 13.0001 13V17C13.0001 17.3844 12.7797 17.7348 12.4332 17.9013C12.0867 18.0678 11.6755 18.021 11.3753 17.7809L9.37534 16.1809C8.94408 15.8359 8.87414 15.2065 9.21921 14.7753C9.56421 14.3441 10.1935 14.2741 10.6247 14.6191L11.0001 14.9194V13C11.0001 12.4477 11.4477 12 12.0001 12Z" fill="white"/>
<path fill-rule="evenodd" clip-rule="evenodd" d="M14.7809 14.7748C15.1259 15.206 15.056 15.8354 14.6247 16.1804L12.6247 17.7804C12.1935 18.1254 11.5642 18.0554 11.2192 17.6242C10.8741 17.1929 10.9441 16.5636 11.3753 16.2186L13.3753 14.6186C13.8066 14.2736 14.4359 14.3435 14.7809 14.7748Z" fill="white"/>
</svg>
